<svg xmlns="http://www.w3.org/2000/svg" xmlns:xlink="http://www.w3.org/1999/xlink" width="1200" zoomAndPan="magnify" viewBox="0 0 900 899.99999" height="1200" preserveAspectRatio="xMidYMid meet" version="1.2"><defs><clipPath id="aabe2309bb"><path d="M 719 340.960938 L 725 340.960938 L 725 353 L 719 353 Z M 719 340.960938 "/></clipPath><clipPath id="7e3023759a"><path d="M 676 356 L 768 356 L 768 482.710938 L 676 482.710938 Z M 676 356 "/></clipPath><clipPath id="ccc63953a9"><path d="M 772 400 L 784.09375 400 L 784.09375 405 L 772 405 Z M 772 400 "/></clipPath><clipPath id="b88636ccf9"><path d="M 660.34375 400 L 672 400 L 672 405 L 660.34375 405 Z M 660.34375 400 "/></clipPath></defs><g id="d2084856d5"><path style=" stroke:none;fill-rule:nonzero;fill:#ffcc00;fill-opacity:1;" d="M 712.050781 369.691406 C 709.84375 369.691406 707.851562 370.578125 706.417969 372.011719 C 703.210938 372.234375 700.449219 374.113281 699.125 376.765625 C 695.589844 377.316406 692.828125 380.078125 692.828125 383.613281 C 692.828125 384.167969 692.9375 384.71875 693.046875 385.273438 C 690.726562 386.820312 689.289062 389.359375 689.289062 392.011719 C 689.289062 393.78125 689.84375 395.4375 690.949219 396.761719 C 689.734375 398.089844 689.070312 399.855469 689.070312 401.625 C 689.070312 403.28125 689.621094 404.941406 690.726562 406.265625 C 690.617188 406.816406 690.507812 407.371094 690.507812 407.921875 C 690.507812 411.238281 692.828125 414 696.03125 414.996094 C 696.804688 417.867188 699.457031 420.078125 702.660156 420.519531 C 704.207031 423.171875 707.191406 424.828125 710.503906 424.828125 C 715.585938 424.828125 719.785156 421.070312 719.785156 416.542969 L 720.007812 376.765625 C 720.007812 372.898438 716.359375 369.691406 712.050781 369.691406 Z M 715.476562 416.652344 C 715.476562 418.640625 713.15625 420.519531 710.617188 420.519531 C 708.625 420.519531 706.859375 419.414062 706.304688 417.757812 C 705.976562 416.871094 705.203125 416.210938 704.207031 416.210938 C 704.207031 416.210938 704.097656 416.210938 704.097656 416.210938 C 704.097656 416.210938 703.984375 416.210938 703.875 416.210938 C 701.886719 416.210938 700.230469 414.773438 700.230469 413.117188 C 700.230469 412.011719 699.34375 411.015625 698.128906 410.90625 C 696.363281 410.796875 694.925781 409.46875 694.925781 407.921875 C 694.925781 407.480469 695.035156 407.148438 695.257812 406.707031 C 695.808594 405.714844 695.476562 404.609375 694.703125 403.945312 C 693.929688 403.28125 693.488281 402.507812 693.488281 401.625 C 693.488281 400.519531 694.152344 399.414062 695.367188 398.863281 C 696.03125 398.53125 696.472656 397.757812 696.582031 396.984375 C 696.582031 396.210938 696.25 395.4375 695.589844 394.996094 C 694.484375 394.222656 693.820312 393.117188 693.820312 391.902344 C 693.820312 390.246094 695.035156 388.808594 696.695312 388.253906 C 697.355469 388.035156 697.910156 387.480469 698.128906 386.820312 C 698.351562 386.15625 698.242188 385.382812 697.796875 384.832031 C 697.578125 384.609375 697.355469 384.167969 697.355469 383.503906 C 697.355469 382.179688 698.683594 381.074219 700.339844 381.074219 C 700.449219 381.074219 700.5625 381.074219 700.671875 381.074219 C 701.777344 381.183594 702.769531 380.410156 702.992188 379.304688 C 703.324219 377.539062 705.089844 376.324219 707.191406 376.324219 L 707.523438 376.324219 C 708.296875 376.324219 709.070312 375.992188 709.511719 375.328125 C 710.0625 374.445312 711.167969 374.003906 712.273438 374.003906 C 714.152344 374.003906 715.808594 375.328125 715.808594 376.652344 Z M 715.476562 416.652344 "/><g clip-rule="nonzero" clip-path="url(#aabe2309bb)"><path style=" stroke:none;fill-rule:nonzero;fill:#ffcc00;fill-opacity:1;" d="M 721.996094 352.015625 C 723.210938 352.015625 724.207031 351.019531 724.207031 349.804688 L 724.207031 343.175781 C 724.207031 341.960938 723.210938 340.964844 721.996094 340.964844 C 720.78125 340.964844 719.785156 341.960938 719.785156 343.175781 L 719.785156 349.804688 C 719.785156 351.019531 720.78125 352.015625 721.996094 352.015625 Z M 721.996094 352.015625 "/></g><g clip-rule="nonzero" clip-path="url(#7e3023759a)"><path style=" stroke:none;fill-rule:nonzero;fill:#ffcc00;fill-opacity:1;" d="M 767.519531 402.066406 C 767.519531 376.875 747.078125 356.433594 721.996094 356.433594 C 696.914062 356.433594 676.585938 376.875 676.585938 402.066406 C 676.585938 410.683594 679.015625 419.082031 683.546875 426.375 C 685.3125 429.136719 687.414062 431.679688 689.402344 434.109375 C 690.507812 435.546875 691.722656 436.980469 692.828125 438.417969 C 699.789062 447.699219 704.207031 457.644531 705.3125 467.367188 L 705.3125 467.476562 C 705.3125 470.683594 707.742188 473.222656 710.835938 473.554688 L 710.835938 475.765625 C 710.835938 479.410156 713.820312 482.394531 717.464844 482.394531 L 726.304688 482.394531 C 729.953125 482.394531 732.933594 479.410156 732.933594 475.765625 L 732.933594 473.445312 C 736.027344 473.113281 738.460938 470.683594 738.460938 467.367188 C 739.34375 460.40625 741.882812 453.222656 746.304688 445.488281 C 748.402344 441.84375 750.945312 438.640625 753.597656 435.214844 C 756.027344 432.121094 758.570312 428.917969 760.667969 425.378906 C 765.199219 418.53125 767.519531 410.355469 767.519531 402.066406 Z M 728.625 475.765625 C 728.625 476.980469 727.632812 477.972656 726.414062 477.972656 L 717.578125 477.972656 C 716.359375 477.972656 715.367188 476.980469 715.367188 475.765625 L 715.367188 473.554688 L 728.625 473.554688 Z M 750.28125 432.671875 C 747.628906 436.097656 744.867188 439.523438 742.65625 443.390625 C 737.90625 451.675781 735.144531 459.410156 734.261719 467.035156 C 734.261719 467.144531 734.261719 467.257812 734.261719 467.367188 C 734.261719 468.363281 733.488281 469.136719 732.492188 469.136719 L 724.207031 469.136719 L 724.207031 438.199219 C 724.207031 436.980469 723.210938 435.988281 721.996094 435.988281 C 720.78125 435.988281 719.785156 436.980469 719.785156 438.199219 L 719.785156 469.136719 L 711.609375 469.136719 C 710.617188 469.136719 709.953125 468.363281 709.84375 467.367188 C 709.84375 467.367188 709.84375 466.925781 709.84375 466.925781 C 708.625 456.429688 703.984375 445.710938 696.472656 435.765625 C 695.367188 434.21875 694.042969 432.785156 692.9375 431.347656 C 690.949219 428.917969 688.960938 426.597656 687.414062 424.054688 C 683.324219 417.535156 681.113281 409.910156 681.113281 402.066406 C 681.003906 379.304688 699.34375 360.855469 721.996094 360.855469 C 744.648438 360.855469 762.988281 379.304688 762.988281 402.066406 C 762.988281 409.582031 761 416.984375 757.132812 423.390625 C 755.144531 426.597656 752.824219 429.578125 750.28125 432.671875 Z M 750.28125 432.671875 "/></g><path style=" stroke:none;fill-rule:nonzero;fill:#ffcc00;fill-opacity:1;" d="M 753.484375 396.761719 C 754.480469 395.328125 755.144531 393.667969 755.144531 392.011719 C 755.144531 389.25 753.707031 386.820312 751.386719 385.273438 C 751.496094 384.71875 751.609375 384.167969 751.609375 383.613281 C 751.609375 380.191406 748.84375 377.316406 745.308594 376.765625 C 743.984375 374.113281 741.222656 372.234375 738.015625 372.011719 C 736.582031 370.464844 734.59375 369.691406 732.382812 369.691406 C 728.074219 369.691406 724.425781 372.898438 724.425781 376.765625 L 724.539062 416.652344 C 724.539062 421.183594 728.847656 424.9375 733.820312 424.9375 C 737.132812 424.9375 740.117188 423.28125 741.664062 420.628906 C 744.867188 420.1875 747.519531 417.976562 748.292969 415.105469 C 751.496094 414.109375 753.816406 411.347656 753.816406 408.035156 C 753.816406 407.480469 753.707031 406.929688 753.597656 406.375 C 754.703125 405.050781 755.253906 403.394531 755.253906 401.734375 C 755.363281 399.855469 754.703125 398.089844 753.484375 396.761719 Z M 749.730469 404.054688 C 748.84375 404.71875 748.625 405.933594 749.175781 406.816406 C 749.398438 407.261719 749.507812 407.589844 749.507812 408.035156 C 749.507812 409.582031 748.070312 410.90625 746.304688 411.015625 C 745.199219 411.128906 744.203125 412.011719 744.203125 413.226562 C 744.203125 414.882812 742.546875 416.320312 740.449219 416.320312 C 740.449219 416.320312 740.335938 416.320312 740.335938 416.320312 C 739.34375 416.210938 738.460938 416.871094 738.128906 417.867188 C 737.574219 419.414062 735.808594 420.519531 733.820312 420.519531 C 731.277344 420.519531 728.957031 418.640625 728.957031 416.652344 L 728.847656 376.765625 C 728.847656 375.4375 730.613281 374.113281 732.382812 374.113281 C 733.488281 374.113281 734.59375 374.664062 735.144531 375.4375 C 735.585938 376.101562 736.359375 376.433594 737.132812 376.433594 L 737.464844 376.433594 C 739.453125 376.433594 741.222656 377.648438 741.664062 379.417969 C 741.882812 380.519531 742.878906 381.183594 743.984375 381.183594 C 744.09375 381.183594 744.203125 381.183594 744.316406 381.183594 C 745.972656 381.183594 747.296875 382.289062 747.296875 383.613281 C 747.296875 384.167969 747.078125 384.609375 746.855469 384.941406 C 746.414062 385.492188 746.304688 386.265625 746.523438 386.929688 C 746.746094 387.59375 747.296875 388.144531 747.960938 388.367188 C 749.730469 388.917969 750.835938 390.464844 750.835938 392.011719 C 750.835938 393.226562 750.171875 394.332031 749.066406 395.105469 C 748.402344 395.546875 748.070312 396.320312 748.070312 397.09375 C 748.070312 397.867188 748.625 398.53125 749.289062 398.972656 C 750.390625 399.527344 751.164062 400.628906 751.164062 401.734375 C 750.945312 402.507812 750.503906 403.394531 749.730469 404.054688 Z M 749.730469 404.054688 "/><path style=" stroke:none;fill-rule:nonzero;fill:#ffcc00;fill-opacity:1;" d="M 761.109375 438.527344 C 760.226562 437.644531 758.789062 437.644531 758.015625 438.527344 C 757.132812 439.414062 757.132812 440.738281 758.015625 441.621094 C 758.015625 441.621094 762.765625 446.375 762.765625 446.375 C 763.539062 447.148438 765.085938 447.257812 765.859375 446.375 C 766.746094 445.488281 766.746094 444.164062 765.859375 443.28125 Z M 761.109375 438.527344 "/><path style=" stroke:none;fill-rule:nonzero;fill:#ffcc00;fill-opacity:1;" d="M 774.921875 430.574219 L 769.066406 427.257812 C 767.960938 426.597656 766.632812 427.039062 766.082031 428.03125 C 765.417969 429.136719 765.859375 430.464844 766.855469 431.015625 C 766.855469 431.015625 772.710938 434.332031 772.710938 434.332031 C 773.707031 434.882812 775.140625 434.550781 775.695312 433.558594 C 776.359375 432.5625 776.027344 431.238281 774.921875 430.574219 Z M 774.921875 430.574219 "/><path style=" stroke:none;fill-rule:nonzero;fill:#ffcc00;fill-opacity:1;" d="M 780.445312 415.988281 L 773.925781 414.222656 C 772.710938 413.890625 771.496094 414.550781 771.164062 415.769531 C 770.832031 416.984375 771.496094 418.199219 772.710938 418.417969 C 772.710938 418.417969 779.230469 420.1875 779.230469 420.1875 C 780.335938 420.519531 781.660156 419.746094 781.992188 418.640625 C 782.324219 417.535156 781.550781 416.320312 780.445312 415.988281 Z M 780.445312 415.988281 "/><g clip-rule="nonzero" clip-path="url(#ccc63953a9)"><path style=" stroke:none;fill-rule:nonzero;fill:#ffcc00;fill-opacity:1;" d="M 781.882812 400.519531 L 775.140625 400.519531 C 773.925781 400.519531 772.933594 401.515625 772.933594 402.730469 C 772.933594 403.945312 773.925781 404.941406 775.140625 404.941406 L 781.882812 404.941406 C 783.097656 404.941406 784.09375 403.945312 784.09375 402.730469 C 784.09375 401.515625 783.097656 400.519531 781.882812 400.519531 Z M 781.882812 400.519531 "/></g><path style=" stroke:none;fill-rule:nonzero;fill:#ffcc00;fill-opacity:1;" d="M 771.164062 389.582031 C 771.496094 390.6875 772.710938 391.460938 773.925781 391.128906 L 780.445312 389.359375 C 781.660156 389.027344 782.324219 387.8125 781.992188 386.707031 C 781.660156 385.492188 780.445312 384.832031 779.230469 385.160156 L 772.710938 386.929688 C 771.605469 387.261719 770.945312 388.476562 771.164062 389.582031 Z M 771.164062 389.582031 "/><path style=" stroke:none;fill-rule:nonzero;fill:#ffcc00;fill-opacity:1;" d="M 766.082031 377.425781 C 766.632812 378.421875 768.070312 378.863281 769.066406 378.199219 L 774.921875 374.886719 C 776.027344 374.222656 776.359375 372.898438 775.695312 371.902344 C 775.03125 370.796875 773.707031 370.464844 772.710938 371.128906 L 766.855469 374.445312 C 765.859375 374.996094 765.53125 376.324219 766.082031 377.425781 Z M 766.082031 377.425781 "/><path style=" stroke:none;fill-rule:nonzero;fill:#ffcc00;fill-opacity:1;" d="M 759.5625 367.484375 C 760.558594 367.484375 761.21875 366.710938 761.882812 366.046875 C 762.546875 365.382812 765.199219 362.730469 765.859375 362.070312 C 766.746094 361.183594 766.746094 359.859375 765.859375 358.976562 C 764.976562 358.089844 763.539062 358.089844 762.765625 358.976562 L 758.015625 363.726562 C 757.132812 364.609375 757.132812 365.9375 758.015625 366.820312 C 758.457031 367.261719 759.011719 367.484375 759.5625 367.484375 Z M 759.5625 367.484375 "/><path style=" stroke:none;fill-rule:nonzero;fill:#ffcc00;fill-opacity:1;" d="M 747.519531 358.863281 C 748.515625 359.417969 749.949219 359.085938 750.503906 358.089844 L 753.816406 352.347656 C 754.480469 351.242188 754.039062 349.914062 753.042969 349.363281 C 751.9375 348.699219 750.613281 349.140625 750.0625 350.136719 L 746.746094 355.882812 C 746.082031 356.875 746.414062 358.203125 747.519531 358.863281 Z M 747.519531 358.863281 "/><path style=" stroke:none;fill-rule:nonzero;fill:#ffcc00;fill-opacity:1;" d="M 735.144531 353.78125 C 736.359375 354.113281 737.574219 353.339844 737.90625 352.234375 L 739.675781 345.828125 C 740.007812 344.613281 739.34375 343.394531 738.128906 343.066406 C 736.914062 342.734375 735.695312 343.394531 735.367188 344.613281 L 733.597656 351.019531 C 733.265625 352.234375 734.039062 353.449219 735.144531 353.78125 Z M 735.144531 353.78125 "/><path style=" stroke:none;fill-rule:nonzero;fill:#ffcc00;fill-opacity:1;" d="M 683.324219 438.527344 L 678.574219 443.28125 C 677.6875 444.164062 677.6875 445.488281 678.574219 446.375 C 679.457031 447.257812 680.894531 447.148438 681.667969 446.375 C 681.667969 446.375 686.417969 441.621094 686.417969 441.621094 C 687.300781 440.738281 687.300781 439.414062 686.417969 438.527344 C 685.535156 437.644531 684.097656 437.644531 683.324219 438.527344 Z M 683.324219 438.527344 "/><path style=" stroke:none;fill-rule:nonzero;fill:#ffcc00;fill-opacity:1;" d="M 678.351562 428.03125 C 677.6875 426.925781 676.363281 426.597656 675.367188 427.257812 L 669.511719 430.574219 C 668.40625 431.238281 668.078125 432.5625 668.738281 433.558594 C 669.292969 434.550781 670.726562 434.992188 671.722656 434.332031 C 671.722656 434.332031 677.578125 431.015625 677.578125 431.015625 C 678.574219 430.464844 678.90625 429.136719 678.351562 428.03125 Z M 678.351562 428.03125 "/><path style=" stroke:none;fill-rule:nonzero;fill:#ffcc00;fill-opacity:1;" d="M 673.269531 415.878906 C 672.9375 414.664062 671.722656 414 670.507812 414.332031 L 663.988281 416.097656 C 662.773438 416.429688 662.109375 417.644531 662.441406 418.75 C 662.773438 419.964844 663.988281 420.628906 665.203125 420.296875 C 665.203125 420.296875 671.722656 418.53125 671.722656 418.53125 C 672.828125 418.199219 673.492188 416.984375 673.269531 415.878906 Z M 673.269531 415.878906 "/><g clip-rule="nonzero" clip-path="url(#b88636ccf9)"><path style=" stroke:none;fill-rule:nonzero;fill:#ffcc00;fill-opacity:1;" d="M 669.292969 404.941406 C 670.507812 404.941406 671.5 403.945312 671.5 402.730469 C 671.5 401.515625 670.507812 400.519531 669.292969 400.519531 L 662.550781 400.519531 C 661.335938 400.519531 660.34375 401.515625 660.34375 402.730469 C 660.34375 403.945312 661.335938 404.941406 662.550781 404.941406 Z M 669.292969 404.941406 "/></g><path style=" stroke:none;fill-rule:nonzero;fill:#ffcc00;fill-opacity:1;" d="M 663.988281 389.472656 L 670.507812 391.238281 C 671.613281 391.570312 672.9375 390.796875 673.269531 389.691406 C 673.601562 388.476562 672.9375 387.261719 671.722656 387.039062 L 665.203125 385.160156 C 663.988281 384.832031 662.773438 385.492188 662.441406 386.707031 C 662.109375 387.925781 662.882812 389.140625 663.988281 389.472656 Z M 663.988281 389.472656 "/><path style=" stroke:none;fill-rule:nonzero;fill:#ffcc00;fill-opacity:1;" d="M 669.511719 374.886719 L 675.367188 378.199219 C 676.363281 378.753906 677.800781 378.421875 678.351562 377.425781 C 679.015625 376.324219 678.574219 374.996094 677.578125 374.445312 L 671.722656 371.128906 C 670.617188 370.464844 669.292969 370.910156 668.738281 371.902344 C 668.078125 372.898438 668.40625 374.222656 669.511719 374.886719 Z M 669.511719 374.886719 "/><path style=" stroke:none;fill-rule:nonzero;fill:#ffcc00;fill-opacity:1;" d="M 682.441406 366.15625 C 683.101562 366.820312 683.765625 367.59375 684.761719 367.59375 C 685.3125 367.59375 685.976562 367.371094 686.308594 366.929688 C 687.191406 366.046875 687.191406 364.722656 686.308594 363.835938 L 681.554688 359.085938 C 680.671875 358.203125 679.234375 358.203125 678.460938 359.085938 C 677.578125 359.96875 677.578125 361.296875 678.460938 362.179688 C 679.125 362.84375 681.777344 365.382812 682.441406 366.15625 Z M 682.441406 366.15625 "/><path style=" stroke:none;fill-rule:nonzero;fill:#ffcc00;fill-opacity:1;" d="M 693.929688 358.089844 C 694.484375 359.085938 695.921875 359.527344 696.914062 358.863281 C 698.019531 358.203125 698.351562 356.875 697.6875 355.882812 L 694.375 350.136719 C 693.710938 349.03125 692.382812 348.699219 691.390625 349.363281 C 690.285156 350.027344 689.953125 351.351562 690.617188 352.347656 Z M 693.929688 358.089844 "/><path style=" stroke:none;fill-rule:nonzero;fill:#ffcc00;fill-opacity:1;" d="M 706.527344 352.234375 C 706.859375 353.449219 708.074219 354.113281 709.289062 353.78125 C 710.503906 353.449219 711.167969 352.234375 710.835938 351.019531 L 709.070312 344.613281 C 708.738281 343.394531 707.523438 342.734375 706.304688 343.066406 C 705.089844 343.394531 704.429688 344.613281 704.757812 345.828125 Z M 706.527344 352.234375 "/><g style="fill:#1f48ff;fill-opacity:1;"><g transform="translate(115.898459, 451.537175)"><path style="stroke:none" d="M 24.859375 -82.71875 L 24.859375 -16.546875 L 53.34375 -16.546875 L 53.34375 0 L 6.015625 0 L 6.015625 -82.71875 Z M 24.859375 -82.71875 "/></g></g><g style="fill:#1f48ff;fill-opacity:1;"><g transform="translate(172.541869, 451.537175)"><path style="stroke:none" d="M 58.046875 -23.265625 L 20.75 -23.265625 C 20.75 -19.648438 21.921875 -16.972656 24.265625 -15.234375 C 26.609375 -13.503906 29.148438 -12.640625 31.890625 -12.640625 C 34.765625 -12.640625 37.035156 -13.019531 38.703125 -13.78125 C 40.367188 -14.550781 42.273438 -16.070312 44.421875 -18.34375 L 57.25 -11.9375 C 51.90625 -2.976562 43.015625 1.5 30.578125 1.5 C 22.828125 1.5 16.175781 -1.15625 10.625 -6.46875 C 5.082031 -11.78125 2.3125 -18.175781 2.3125 -25.65625 C 2.3125 -33.144531 5.082031 -39.5625 10.625 -44.90625 C 16.175781 -50.257812 22.828125 -52.9375 30.578125 -52.9375 C 38.734375 -52.9375 45.367188 -50.578125 50.484375 -45.859375 C 55.597656 -41.148438 58.15625 -34.421875 58.15625 -25.671875 C 58.15625 -24.460938 58.117188 -23.660156 58.046875 -23.265625 Z M 21.25 -33.09375 L 40.8125 -33.09375 C 40.40625 -35.757812 39.347656 -37.8125 37.640625 -39.25 C 35.941406 -40.6875 33.753906 -41.40625 31.078125 -41.40625 C 28.140625 -41.40625 25.800781 -40.632812 24.0625 -39.09375 C 22.320312 -37.5625 21.382812 -35.5625 21.25 -33.09375 Z M 21.25 -33.09375 "/></g></g><g style="fill:#1f48ff;fill-opacity:1;"><g transform="translate(232.593879, 451.537175)"><path style="stroke:none" d="M 28.375 -52.9375 C 31.3125 -52.9375 34.21875 -52.601562 37.09375 -51.9375 C 39.96875 -51.269531 42.109375 -50.601562 43.515625 -49.9375 L 45.625 -48.921875 L 39.8125 -37.296875 C 35.800781 -39.429688 31.988281 -40.5 28.375 -40.5 C 26.375 -40.5 24.953125 -40.28125 24.109375 -39.84375 C 23.273438 -39.414062 22.859375 -38.601562 22.859375 -37.40625 C 22.859375 -37.132812 22.890625 -36.863281 22.953125 -36.59375 C 23.023438 -36.332031 23.160156 -36.082031 23.359375 -35.84375 C 23.554688 -35.613281 23.738281 -35.414062 23.90625 -35.25 C 24.070312 -35.082031 24.359375 -34.894531 24.765625 -34.6875 C 25.171875 -34.488281 25.488281 -34.335938 25.71875 -34.234375 C 25.945312 -34.140625 26.328125 -33.988281 26.859375 -33.78125 C 27.398438 -33.582031 27.800781 -33.429688 28.0625 -33.328125 C 28.332031 -33.234375 28.785156 -33.085938 29.421875 -32.890625 C 30.054688 -32.691406 30.539062 -32.554688 30.875 -32.484375 C 32.945312 -31.878906 34.753906 -31.207031 36.296875 -30.46875 C 37.835938 -29.738281 39.457031 -28.738281 41.15625 -27.46875 C 42.863281 -26.195312 44.179688 -24.59375 45.109375 -22.65625 C 46.046875 -20.71875 46.515625 -18.515625 46.515625 -16.046875 C 46.515625 -4.347656 38.394531 1.5 22.15625 1.5 C 18.476562 1.5 14.984375 0.929688 11.671875 -0.203125 C 8.367188 -1.335938 5.984375 -2.472656 4.515625 -3.609375 L 2.3125 -5.421875 L 9.53125 -17.546875 C 10.0625 -17.078125 10.757812 -16.523438 11.625 -15.890625 C 12.5 -15.253906 14.070312 -14.382812 16.34375 -13.28125 C 18.613281 -12.175781 20.585938 -11.625 22.265625 -11.625 C 25.941406 -11.625 27.78125 -12.863281 27.78125 -15.34375 C 27.78125 -16.476562 27.3125 -17.363281 26.375 -18 C 25.4375 -18.632812 23.847656 -19.351562 21.609375 -20.15625 C 19.367188 -20.957031 17.613281 -21.691406 16.34375 -22.359375 C 13.132812 -24.023438 10.59375 -25.910156 8.71875 -28.015625 C 6.851562 -30.128906 5.921875 -32.921875 5.921875 -36.390625 C 5.921875 -41.609375 7.941406 -45.671875 11.984375 -48.578125 C 16.023438 -51.484375 21.488281 -52.9375 28.375 -52.9375 Z M 28.375 -52.9375 "/></g></g><g style="fill:#1f48ff;fill-opacity:1;"><g transform="translate(281.918759, 451.537175)"><path style="stroke:none" d="M 50.03125 -17.046875 C 52.90625 -17.046875 55.695312 -17.476562 58.40625 -18.34375 C 61.113281 -19.21875 63.101562 -20.054688 64.375 -20.859375 L 66.28125 -22.15625 L 74.296875 -6.109375 C 74.023438 -5.910156 73.65625 -5.644531 73.1875 -5.3125 C 72.71875 -4.976562 71.628906 -4.359375 69.921875 -3.453125 C 68.222656 -2.554688 66.40625 -1.769531 64.46875 -1.09375 C 62.53125 -0.425781 59.988281 0.171875 56.84375 0.703125 C 53.707031 1.234375 50.46875 1.5 47.125 1.5 C 39.4375 1.5 32.148438 -0.382812 25.265625 -4.15625 C 18.378906 -7.9375 12.832031 -13.132812 8.625 -19.75 C 4.414062 -26.363281 2.3125 -33.515625 2.3125 -41.203125 C 2.3125 -47.023438 3.546875 -52.609375 6.015625 -57.953125 C 8.484375 -63.296875 11.773438 -67.875 15.890625 -71.6875 C 20.003906 -75.5 24.800781 -78.539062 30.28125 -80.8125 C 35.757812 -83.082031 41.375 -84.21875 47.125 -84.21875 C 52.46875 -84.21875 57.394531 -83.582031 61.90625 -82.3125 C 66.425781 -81.039062 69.617188 -79.773438 71.484375 -78.515625 L 74.296875 -76.609375 L 66.28125 -60.5625 C 65.8125 -60.957031 65.109375 -61.4375 64.171875 -62 C 63.234375 -62.570312 61.359375 -63.328125 58.546875 -64.265625 C 55.742188 -65.203125 52.90625 -65.671875 50.03125 -65.671875 C 45.488281 -65.671875 41.410156 -64.9375 37.796875 -63.46875 C 34.191406 -62 31.332031 -60.0625 29.21875 -57.65625 C 27.113281 -55.25 25.507812 -52.65625 24.40625 -49.875 C 23.3125 -47.101562 22.765625 -44.28125 22.765625 -41.40625 C 22.765625 -35.125 25.117188 -29.492188 29.828125 -24.515625 C 34.535156 -19.535156 41.269531 -17.046875 50.03125 -17.046875 Z M 50.03125 -17.046875 "/></g></g><g style="fill:#1f48ff;fill-opacity:1;"><g transform="translate(357.40989, 451.537175)"><path style="stroke:none" d="M 6.015625 0 L 6.015625 -51.4375 L 23.765625 -51.4375 L 23.765625 -44.015625 L 23.96875 -44.015625 C 24.09375 -44.285156 24.304688 -44.617188 24.609375 -45.015625 C 24.910156 -45.421875 25.5625 -46.125 26.5625 -47.125 C 27.570312 -48.125 28.644531 -49.023438 29.78125 -49.828125 C 30.914062 -50.628906 32.382812 -51.347656 34.1875 -51.984375 C 35.988281 -52.617188 37.828125 -52.9375 39.703125 -52.9375 C 41.640625 -52.9375 43.546875 -52.671875 45.421875 -52.140625 C 47.296875 -51.609375 48.664062 -51.070312 49.53125 -50.53125 L 50.9375 -49.734375 L 43.515625 -34.6875 C 41.304688 -36.5625 38.234375 -37.5 34.296875 -37.5 C 32.148438 -37.5 30.304688 -37.03125 28.765625 -36.09375 C 27.234375 -35.15625 26.148438 -34.019531 25.515625 -32.6875 C 24.878906 -31.351562 24.425781 -30.21875 24.15625 -29.28125 C 23.894531 -28.34375 23.765625 -27.609375 23.765625 -27.078125 L 23.765625 0 Z M 6.015625 0 "/></g></g><g style="fill:#1f48ff;fill-opacity:1;"><g transform="translate(406.5342, 451.537175)"><path style="stroke:none" d="M 9.53125 -6.359375 C 4.71875 -11.609375 2.3125 -18.039062 2.3125 -25.65625 C 2.3125 -33.28125 4.71875 -39.734375 9.53125 -45.015625 C 14.34375 -50.296875 20.457031 -52.9375 27.875 -52.9375 C 34.6875 -52.9375 40.300781 -50.796875 44.71875 -46.515625 L 44.71875 -51.4375 L 62.46875 -51.4375 L 62.46875 0 L 44.921875 0 L 44.921875 -5.8125 L 44.71875 -5.8125 C 40.300781 -0.9375 34.6875 1.5 27.875 1.5 C 20.457031 1.5 14.34375 -1.117188 9.53125 -6.359375 Z M 24.609375 -34.390625 C 22.304688 -32.117188 21.15625 -29.210938 21.15625 -25.671875 C 21.15625 -22.128906 22.257812 -19.238281 24.46875 -17 C 26.675781 -14.757812 29.582031 -13.640625 33.1875 -13.640625 C 36.664062 -13.640625 39.523438 -14.773438 41.765625 -17.046875 C 44.003906 -19.316406 45.125 -22.191406 45.125 -25.671875 C 45.125 -29.210938 43.96875 -32.117188 41.65625 -34.390625 C 39.351562 -36.660156 36.53125 -37.796875 33.1875 -37.796875 C 29.78125 -37.796875 26.921875 -36.660156 24.609375 -34.390625 Z M 24.609375 -34.390625 "/></g></g><g style="fill:#1f48ff;fill-opacity:1;"><g transform="translate(475.00754, 451.537175)"><path style="stroke:none" d="M 33.390625 -38.40625 C 30.046875 -38.40625 27.171875 -37.164062 24.765625 -34.6875 C 22.359375 -32.21875 21.15625 -29.242188 21.15625 -25.765625 C 21.15625 -22.222656 22.359375 -19.210938 24.765625 -16.734375 C 27.171875 -14.265625 30.046875 -13.03125 33.390625 -13.03125 C 34.992188 -13.03125 36.515625 -13.226562 37.953125 -13.625 C 39.390625 -14.03125 40.441406 -14.4375 41.109375 -14.84375 L 42.015625 -15.4375 L 48.03125 -3.109375 C 47.5625 -2.773438 46.90625 -2.359375 46.0625 -1.859375 C 45.226562 -1.359375 43.320312 -0.675781 40.34375 0.1875 C 37.375 1.0625 34.1875 1.5 30.78125 1.5 C 23.226562 1.5 16.59375 -1.15625 10.875 -6.46875 C 5.164062 -11.78125 2.3125 -18.144531 2.3125 -25.5625 C 2.3125 -33.050781 5.164062 -39.484375 10.875 -44.859375 C 16.59375 -50.242188 23.226562 -52.9375 30.78125 -52.9375 C 34.1875 -52.9375 37.328125 -52.535156 40.203125 -51.734375 C 43.078125 -50.929688 45.117188 -50.128906 46.328125 -49.328125 L 48.03125 -48.125 L 42.015625 -36 C 39.804688 -37.601562 36.929688 -38.40625 33.390625 -38.40625 Z M 33.390625 -38.40625 "/></g></g><g style="fill:#1f48ff;fill-opacity:1;"><g transform="translate(524.232147, 451.537175)"><path style="stroke:none" d="M 64.765625 -51.4375 L 40.3125 -26.875 L 67.171875 0 L 44.3125 0 L 23.765625 -20.546875 L 23.765625 0 L 6.015625 0 L 6.015625 -86.234375 L 23.765625 -86.234375 L 23.765625 -33.484375 L 41.703125 -51.4375 Z M 64.765625 -51.4375 "/></g></g><g style="fill:#1f48ff;fill-opacity:1;"><g transform="translate(588.996136, 451.537175)"><path style="stroke:none" d="M 28.375 -52.9375 C 31.3125 -52.9375 34.21875 -52.601562 37.09375 -51.9375 C 39.96875 -51.269531 42.109375 -50.601562 43.515625 -49.9375 L 45.625 -48.921875 L 39.8125 -37.296875 C 35.800781 -39.429688 31.988281 -40.5 28.375 -40.5 C 26.375 -40.5 24.953125 -40.28125 24.109375 -39.84375 C 23.273438 -39.414062 22.859375 -38.601562 22.859375 -37.40625 C 22.859375 -37.132812 22.890625 -36.863281 22.953125 -36.59375 C 23.023438 -36.332031 23.160156 -36.082031 23.359375 -35.84375 C 23.554688 -35.613281 23.738281 -35.414062 23.90625 -35.25 C 24.070312 -35.082031 24.359375 -34.894531 24.765625 -34.6875 C 25.171875 -34.488281 25.488281 -34.335938 25.71875 -34.234375 C 25.945312 -34.140625 26.328125 -33.988281 26.859375 -33.78125 C 27.398438 -33.582031 27.800781 -33.429688 28.0625 -33.328125 C 28.332031 -33.234375 28.785156 -33.085938 29.421875 -32.890625 C 30.054688 -32.691406 30.539062 -32.554688 30.875 -32.484375 C 32.945312 -31.878906 34.753906 -31.207031 36.296875 -30.46875 C 37.835938 -29.738281 39.457031 -28.738281 41.15625 -27.46875 C 42.863281 -26.195312 44.179688 -24.59375 45.109375 -22.65625 C 46.046875 -20.71875 46.515625 -18.515625 46.515625 -16.046875 C 46.515625 -4.347656 38.394531 1.5 22.15625 1.5 C 18.476562 1.5 14.984375 0.929688 11.671875 -0.203125 C 8.367188 -1.335938 5.984375 -2.472656 4.515625 -3.609375 L 2.3125 -5.421875 L 9.53125 -17.546875 C 10.0625 -17.078125 10.757812 -16.523438 11.625 -15.890625 C 12.5 -15.253906 14.070312 -14.382812 16.34375 -13.28125 C 18.613281 -12.175781 20.585938 -11.625 22.265625 -11.625 C 25.941406 -11.625 27.78125 -12.863281 27.78125 -15.34375 C 27.78125 -16.476562 27.3125 -17.363281 26.375 -18 C 25.4375 -18.632812 23.847656 -19.351562 21.609375 -20.15625 C 19.367188 -20.957031 17.613281 -21.691406 16.34375 -22.359375 C 13.132812 -24.023438 10.59375 -25.910156 8.71875 -28.015625 C 6.851562 -30.128906 5.921875 -32.921875 5.921875 -36.390625 C 5.921875 -41.609375 7.941406 -45.671875 11.984375 -48.578125 C 16.023438 -51.484375 21.488281 -52.9375 28.375 -52.9375 Z M 28.375 -52.9375 "/></g></g></g></svg>